<svg xmlns="http://www.w3.org/2000/svg" viewBox="0 0 900 560" role="img" aria-labelledby="title desc">
  <title id="title">Productos Pokémon TCG</title>
  <desc id="desc">Ilustración de sobres y cartas coleccionables en tonos dorados y azules.</desc>
  <defs>
    <linearGradient id="bg" x1="0" x2="1" y1="0" y2="1">
      <stop offset="0" stop-color="#061026"/>
      <stop offset=".55" stop-color="#0b63f6"/>
      <stop offset="1" stop-color="#f9b81f"/>
    </linearGradient>
    <linearGradient id="pack" x1="0" x2="1" y1="0" y2="1">
      <stop offset="0" stop-color="#fff3a6"/>
      <stop offset=".55" stop-color="#f9b81f"/>
      <stop offset="1" stop-color="#e27508"/>
    </linearGradient>
    <filter id="shadow" x="-20%" y="-20%" width="140%" height="140%">
      <feDropShadow dx="0" dy="24" stdDeviation="24" flood-color="#020617" flood-opacity=".35"/>
    </filter>
  </defs>
  <rect width="900" height="560" fill="url(#bg)"/>
  <circle cx="118" cy="95" r="180" fill="#ffffff" opacity=".1"/>
  <circle cx="760" cy="438" r="210" fill="#020617" opacity=".22"/>
  <g filter="url(#shadow)">
    <rect x="138" y="150" width="170" height="250" rx="22" fill="#ffffff" opacity=".92" transform="rotate(-13 223 275)"/>
    <rect x="161" y="177" width="124" height="44" rx="12" fill="#0b63f6" opacity=".86" transform="rotate(-13 223 275)"/>
    <rect x="178" y="250" width="92" height="92" rx="18" fill="#f9b81f" transform="rotate(-13 223 275)"/>
    <rect x="594" y="136" width="178" height="256" rx="22" fill="#ffffff" opacity=".92" transform="rotate(12 683 264)"/>
    <rect x="620" y="166" width="126" height="44" rx="12" fill="#0b63f6" opacity=".86" transform="rotate(12 683 264)"/>
    <rect x="636" y="244" width="96" height="96" rx="18" fill="#f9b81f" transform="rotate(12 683 264)"/>
    <rect x="338" y="86" width="240" height="350" rx="32" fill="url(#pack)"/>
    <rect x="368" y="122" width="180" height="58" rx="16" fill="#ffffff" opacity=".94"/>
    <text x="458" y="160" text-anchor="middle" font-family="Arial, Helvetica, sans-serif" font-size="31" font-weight="900" fill="#061026">POKÉMON</text>
    <circle cx="458" cy="270" r="70" fill="#ffffff" opacity=".9"/>
    <path d="M388 270h140" stroke="#061026" stroke-width="18"/>
    <circle cx="458" cy="270" r="24" fill="#061026"/>
    <circle cx="458" cy="270" r="12" fill="#ffffff"/>
    <rect x="376" y="368" width="164" height="42" rx="15" fill="#061026" opacity=".92"/>
    <text x="458" y="396" text-anchor="middle" font-family="Arial, Helvetica, sans-serif" font-size="23" font-weight="900" fill="#ffffff">BOOSTERS</text>
  </g>
</svg>
